<svg width="48" height="48" viewBox="0 0 48 48" fill="none" xmlns="http://www.w3.org/2000/svg">
    <path d="M7 13C6.44772 13 6 13.4477 6 14C6 14.5523 6.44772 15 7 15L7 13ZM41 15C41.5523 15 42 14.5523 42 14C42 13.4477 41.5523 13 41 13V15ZM7 15H41V13H7L7 15Z" fill="#4E7850"/>
    <path d="M7 23C6.44772 23 6 23.4477 6 24C6 24.5523 6.44772 25 7 25L7 23ZM41 25C41.5523 25 42 24.5523 42 24C42 23.4477 41.5523 23 41 23V25ZM7 25H41V23H7L7 25Z" fill="#4E7850"/>
    <path d="M7 33C6.44772 33 6 33.4477 6 34C6 34.5523 6.44772 35 7 35L7 33ZM41 35C41.5523 35 42 34.5523 42 34C42 33.4477 41.5523 33 41 33V35ZM7 35H41V33H7L7 35Z" fill="#4E7850"/>
</svg>