<svg width="24" height="24" viewBox="0 0 24 24" fill="none" xmlns="http://www.w3.org/2000/svg">
    <path d="M21.6804 2.97517C21.4737 2.79671 21.2221 2.67821 20.9529 2.63247C20.6837 2.58674 20.4072 2.61552 20.1532 2.71571L2.85093 9.51304C2.54935 9.63152 2.29424 9.84447 2.12377 10.12C1.95331 10.3956 1.87665 10.7189 1.90528 11.0417C1.93391 11.3644 2.06628 11.6692 2.28258 11.9105C2.49888 12.1517 2.78749 12.3165 3.10522 12.38L7.50012 13.259V18.7484C7.49986 19.0452 7.58769 19.3354 7.75246 19.5822C7.91724 19.8291 8.15157 20.0214 8.42576 20.135C8.69995 20.2486 9.00168 20.2782 9.29273 20.2202C9.58379 20.1622 9.85108 20.0191 10.0608 19.8091L12.4929 17.3769L16.1844 20.6254C16.4562 20.8668 16.807 21.0003 17.1704 21.0007C17.3284 21.0005 17.4854 20.9756 17.6357 20.9269C17.8836 20.8483 18.1066 20.706 18.2824 20.5143C18.4581 20.3226 18.5805 20.0882 18.6374 19.8344L22.1637 4.44697C22.2251 4.18089 22.2125 3.90308 22.1273 3.64365C22.0421 3.38421 21.8875 3.15303 21.6804 2.97517ZM17.1753 19.4993L9.45106 12.7019L20.574 4.66876L17.1753 19.4993Z" fill="#ffffff"/>
</svg>