<svg width="20" height="16" viewBox="0 0 20 16" fill="none" xmlns="http://www.w3.org/2000/svg">
    <path d="M17.2903 10.253C17.1938 9.586 16.6764 9.066 16.0102 8.911C13.4211 8.307 12.772 6.823 12.6625 5.177C12.2034 5.092 11.3865 5 10 5C8.61349 5 7.79666 5.092 7.3375 5.177C7.22799 6.823 6.57894 8.307 3.98977 8.911C3.32364 9.067 2.80621 9.586 2.70976 10.253L2.21042 13.695C2.03459 14.907 2.92879 16 4.17263 16H15.8274C17.0702 16 17.9654 14.907 17.7896 13.695L17.2903 10.253ZM10 13.492C8.59842 13.492 7.46209 12.372 7.46209 10.992C7.46209 9.612 8.59842 8.492 10 8.492C11.4016 8.492 12.5379 9.612 12.5379 10.992C12.5379 12.372 11.4006 13.492 10 13.492ZM19.997 4C19.9729 2.5 16.1368 0.001 10 0C3.86217 0.001 0.0261544 2.5 0.0030459 4C-0.0200627 5.5 0.024145 7.452 2.55001 7.127C5.50489 6.746 5.32304 5.719 5.32304 4.251C5.32304 3.227 7.72633 2.98 10 2.98C12.2737 2.98 14.676 3.227 14.677 4.251C14.677 5.719 14.4951 6.746 17.45 7.127C19.9749 7.452 20.0201 5.5 19.997 4Z" fill="#ffffff"/>
</svg>
