<svg width="24" height="24" viewBox="0 0 24 24" fill="none" xmlns="http://www.w3.org/2000/svg">
    <path d="M12 2.25C10.3065 2.25046 8.64236 2.69187 7.17128 3.5308C5.70021 4.36973 4.47294 5.57726 3.61027 7.03453C2.74759 8.4918 2.27925 10.1486 2.25133 11.8418C2.22341 13.5351 2.63687 15.2064 3.45103 16.6913L2.64976 19.4959C2.57625 19.7531 2.57287 20.0253 2.63995 20.2842C2.70704 20.5432 2.84216 20.7795 3.03132 20.9687C3.22047 21.1578 3.45677 21.293 3.71572 21.3601C3.97468 21.4272 4.24687 21.4238 4.50408 21.3503L7.30871 20.549C8.61204 21.2642 10.0617 21.6718 11.5467 21.7409C13.0318 21.8099 14.5129 21.5384 15.877 20.9472C17.241 20.356 18.4518 19.4607 19.4168 18.3297C20.3818 17.1988 21.0754 15.8622 21.4445 14.4221C21.8137 12.9821 21.8488 11.4766 21.5469 10.0209C21.2451 8.56524 20.6143 7.19784 19.703 6.02329C18.7916 4.84873 17.6238 3.89812 16.2887 3.24414C14.9536 2.59015 13.4867 2.2501 12 2.25ZM14.2617 18C14.2589 18.0022 14.2538 18 14.2499 18C13.1655 18 12.0917 17.7862 11.0901 17.3709C10.0884 16.9555 9.17839 16.3468 8.41216 15.5795C7.64594 14.8122 7.0385 13.9013 6.62459 12.8991C6.21068 11.8968 5.99842 10.8228 5.99996 9.73837C6.00337 8.84539 6.36042 7.99013 6.99295 7.35978C7.62548 6.72943 8.48197 6.37534 9.37496 6.375C9.62102 6.37531 9.86266 6.4405 10.0755 6.564C10.2883 6.68749 10.4648 6.86493 10.5872 7.07841L11.6832 8.99662C11.8153 9.22801 11.8834 9.49037 11.8805 9.75677C11.8777 10.0232 11.804 10.284 11.6671 10.5125L11.0005 11.6236C11.3302 12.1953 11.8048 12.6699 12.3764 12.9996L13.4874 12.3329C13.716 12.196 13.9768 12.1223 14.2432 12.1194C14.5096 12.1166 14.772 12.1847 15.0034 12.3167L16.9215 13.4128C17.135 13.5351 17.3124 13.7116 17.436 13.9244C17.5595 14.1373 17.6247 14.3789 17.625 14.625C17.6246 15.518 17.2705 16.3744 16.6402 17.007C16.0099 17.6395 15.1546 17.9965 14.2617 18Z" fill="#4E7850"/>
    <path d="M12.7922 14.4994C12.6885 14.5616 12.5713 14.5979 12.4505 14.605C12.3297 14.6121 12.2091 14.5899 12.0987 14.5403C10.9257 14.0133 9.98678 13.0744 9.45978 11.9014C9.41017 11.791 9.38798 11.6703 9.3951 11.5496C9.40223 11.4288 9.43846 11.3116 9.50071 11.2079L10.3809 9.74081L9.31531 7.87598C8.83019 7.89119 8.36989 8.09403 8.03131 8.44178C7.69272 8.78954 7.50226 9.25509 7.50001 9.74045C7.49875 10.6277 7.67241 11.5065 8.01107 12.3265C8.34972 13.1466 8.84672 13.8918 9.47364 14.5196C10.1006 15.1474 10.8451 15.6455 11.6647 15.9853C12.4843 16.3251 13.3628 16.5001 14.25 16.5001H14.2596C14.745 16.4978 15.2105 16.3073 15.5583 15.9688C15.906 15.6302 16.1089 15.1699 16.1241 14.6848L14.2593 13.6192L12.7922 14.4994Z" fill="#4E7850"/>
</svg>