<svg width="143" height="50" viewBox="0 0 143 50" fill="none" xmlns="http://www.w3.org/2000/svg">
    <path d="M87.765 0.163086V34.9203L87.8328 34.9874L103.707 16.9674H110.217L98.1281 30.5327L110.349 49.8352H104.171L94.4068 34.3805L87.7632 41.6685V49.8352H82.3838V0.163086H87.765Z"
          fill="#ffffff"/>
    <path d="M27.9136 0.163086V49.837H22.5342V41.6703L15.8906 34.3823L12.1693 30.5345L0.0803223 16.9692H6.59021L22.4664 34.9892L22.5342 34.9221V0.163086H27.9136Z"
          fill="#ffffff"/>
    <path d="M76.537 0.163086H71.1201V49.8352H76.537V0.163086Z" fill="#ffffff"/>
    <path d="M49.8556 40.9257L53.0597 17.4257C53.0562 17.4239 53.0526 17.4239 53.0473 17.4221L45.2072 39.7699L34.0757 39.2138C36.3883 45.4221 42.2919 49.8351 49.2119 49.8351C53.3504 49.8351 57.1269 48.2554 59.9869 45.6576L49.8556 40.9257Z"
          fill="#ffffff"/>
    <path d="M41.1526 33.0617L36.752 31.4675L44.9077 24.4186L53.0134 17.4132C51.7938 17.1143 50.5207 16.9548 49.2102 16.9548C40.2736 16.9548 33.0291 24.3153 33.0291 33.395C33.0291 35.4331 33.3946 37.3842 34.0632 39.1867L41.1526 33.0617Z"
          fill="#ffffff"/>
    <path d="M53.0918 17.4329L57.0983 27.4492L61.1298 37.5289L56.5028 36.8785L60.0082 45.643C63.314 42.6321 65.3948 38.2626 65.3948 33.3966C65.393 25.6756 60.1544 19.1992 53.0918 17.4329Z"
          fill="#ffffff"/>
    <path d="M137.503 16.9565V21.7337C134.577 18.7808 130.549 16.9565 126.099 16.9565C117.162 16.9565 109.917 24.3171 109.917 33.3968C109.917 42.4765 117.162 49.837 126.099 49.837C130.547 49.837 134.577 48.0127 137.503 45.0598V49.837H142.92V16.9565H137.503ZM126.099 44.9837C119.81 44.9837 114.694 39.7863 114.694 33.3968C114.694 27.0073 119.81 21.8098 126.099 21.8098C132.387 21.8098 137.503 27.0073 137.503 33.3968C137.503 39.7863 132.387 44.9837 126.099 44.9837Z"
          fill="#ffffff"/>
</svg>
